# xmcd
#
# Track frame offsets: 
#        150
#        5774
#        11853
#        17026
#        23262
#        29695
#        36802
#        42855
#        49029
#        57513
#        71823
#        77257
#        83648
#        92938
#        102265
#        114501
#        120166
#        128583
#        140568
#        146393
#        159904
#        167278
#        173815
#        182682
#        192584
#        203059
#        210508
#        213900
#        223441
#        233069
#        238411
#        243818
#        254454
#
# Disc length: 3582 seconds
#
# Revision: 0
# Processed by: cddbd v1.5.2PL0 Copyright (c) Steve Scherf et al.
# Submitted via: ExactAudioCopy v1.1
#
DISCID=c10dfc21
DTITLE=Various Artist - Feesten Als De Beesten - Carnaval, Ambi and Après-Ski M
DTITLE=ix 2019
DYEAR=2019
DGENRE=Pop-Folk
TTITLE0=Sergio - Cowboy Billy
TTITLE1=Gebroeders Ko Feat. Gerard Joling - Dochter Van De Groenteboer
TTITLE2=Partyfriex Feat. Schorre Chef - Ik Moet Zuipen!
TTITLE3=Stefan and Sean Feat. Bram Krikke - Potentie
TTITLE4=De Grote Peter Van De Veire Ochtendshow - Dans DJ Dans! (Alles
TTITLE4=Moet Uit Edit)
TTITLE5=Dimitri Vegas and Like Mike, Armin Van Buuren and W&W - Repeat Aft
TTITLE5=er Me
TTITLE6=Master Blaster and Norda - Now You'Re Gone
TTITLE7=Armin Van Buuren - Blah Blah Blah (Brennan Heart and The Toneshi
TTITLE7=fterz Remix)
TTITLE8=Feest DJ Lucki Luc - De Fles
TTITLE9=Vieze Jack - De Jack Express
TTITLE10=S!Ma - Saus
TTITLE11=Pinkfong - Baby Shark
TTITLE12=Kav Verhouzer and Sjaak - Stap Voor Stap
TTITLE13=Picco - Cubano
TTITLE14=Loudfish - Sara Gossa
TTITLE15=Wolfpack and Eastblock Bitches - Apache Anthem
TTITLE16=Yves Segers - Vi Va Vogeltje
TTITLE17=Stefan Stürmer and Mia Julia - Scheiss Auf Schickimicki
TTITLE18=Bonte Carlo - Explode
TTITLE19=Havenzangers - Country Dans 2019
TTITLE20=Steve Tielens Feat. Zuster Vaseline - Hé Jacqueline (Waar Is 
TTITLE20=De Vaseline)
TTITLE21=Lorenz Büffel Feat. DJ Eisbär - Beate Die Harte
TTITLE22=Almklausi and Specktakel - Mama Laudaaa
TTITLE23=Edrie - Frietboer
TTITLE24=Lawineboys - Alle Remmen Los
TTITLE25=Ojkb - Koning Van Het Bier
TTITLE26=Lawineboys - Wat Zullen We Drinken (Bonte Carlo Remix)
TTITLE27=Zany and Dv8 Feat. De Alpenzusjes - Het Dak Er Af! (Official Wa
TTITLE27=ailand Feesti!Val Anthem)
TTITLE28=Da Tweekaz - Jägermeister
TTITLE29=Snollebollekes - Bobbelen
TTITLE30=Pater Moeskroen - Bella Ciao (Golddiggers Remix)
TTITLE31=Partyfriex - Maximaal
TTITLE32=Cooldown Café - Verdammt Ich Lieb' Dich
EXTD=
EXTT0=
EXTT1=
EXTT2=
EXTT3=
EXTT4=
EXTT5=
EXTT6=
EXTT7=
EXTT8=
EXTT9=
EXTT10=
EXTT11=
EXTT12=
EXTT13=
EXTT14=
EXTT15=
EXTT16=
EXTT17=
EXTT18=
EXTT19=
EXTT20=
EXTT21=
EXTT22=
EXTT23=
EXTT24=
EXTT25=
EXTT26=
EXTT27=
EXTT28=
EXTT29=
EXTT30=
EXTT31=
EXTT32=
PLAYORDER=
